<?xml version="1.0" encoding="UTF-8" standalone="no"?>
<!-- Generator: Adobe Illustrator 19.0.0, SVG Export Plug-In . SVG Version: 6.00 Build 0)  -->

<svg
   xmlns:dc="http://purl.org/dc/elements/1.1/"
   xmlns:cc="http://creativecommons.org/ns#"
   xmlns:rdf="http://www.w3.org/1999/02/22-rdf-syntax-ns#"
   xmlns:svg="http://www.w3.org/2000/svg"
   xmlns="http://www.w3.org/2000/svg"
   xmlns:sodipodi="http://sodipodi.sourceforge.net/DTD/sodipodi-0.dtd"
   xmlns:inkscape="http://www.inkscape.org/namespaces/inkscape"
   version="1.1"
   id="图层_1"
   x="0px"
   y="0px"
   viewBox="0 0 310.00001 79.999997"
   xml:space="preserve"
   inkscape:version="0.91 r13725"
   sodipodi:docname="logo-dark-bg.svg"
   width="310"
   height="80"><metadata
     id="metadata3546"><rdf:RDF><cc:Work
         rdf:about=""><dc:format>image/svg+xml</dc:format><dc:type
           rdf:resource="http://purl.org/dc/dcmitype/StillImage" /><dc:title></dc:title></cc:Work></rdf:RDF></metadata><defs
     id="defs3544" /><sodipodi:namedview
     pagecolor="#ffffff"
     bordercolor="#666666"
     borderopacity="1"
     objecttolerance="10"
     gridtolerance="10"
     guidetolerance="10"
     inkscape:pageopacity="0"
     inkscape:pageshadow="2"
     inkscape:window-width="1920"
     inkscape:window-height="1017"
     id="namedview3542"
     showgrid="false"
     inkscape:zoom="1.0096211"
     inkscape:cx="297.64999"
     inkscape:cy="377.16029"
     inkscape:window-x="1592"
     inkscape:window-y="-8"
     inkscape:window-maximized="1"
     inkscape:current-layer="图层_1" /><style
     type="text/css"
     id="style3337">
	.st0{fill:#44403F;}
	.st1{fill:#F5DD4F;}
	.st2{fill:#D9174A;}
	.st3{fill:#F1937D;}
	.st4{fill:#B7193C;}
	.st5{fill:#DEE456;}
	.st6{fill:#48ACE2;}
	.st7{fill:#F4ED50;}
	.st8{fill:#5B98D2;}
	.st9{fill:#F7CF72;}
	.st10{fill:#F5B743;}
	.st11{fill:#EA504C;}
	.st12{fill:#E0D521;}
	.st13{fill:#158AA7;}
	.st14{fill:#C7BB19;}
	.st15{fill:#D4161F;}
	.st16{fill:#2E4EA0;}
	.st17{fill:#E39014;}
	.st18{fill:#263290;}
	.st19{fill:#0B6B95;}
	.st20{fill:#4270B7;}
	.st21{fill:#E95D7A;}
	.st22{fill:#EA5973;}
	.st23{fill:#5673B8;}
	.st24{fill:#ED787D;}
	.st25{fill:#FFFFFF;stroke:#FFFFFF;stroke-width:2;stroke-miterlimit:10;}
	.st26{fill:none;stroke:#FFFFFF;stroke-width:2;stroke-miterlimit:10;}
	.st27{opacity:0.3;fill:#FFFFFF;}
	.st28{fill:#FFFFFF;}
</style><g
     id="g3548"
     transform="translate(-142.05,-89.25)"><g
       id="XMLID_94_"><path
         d="m 198.2,102.5 c -4.5,-2.6 -9.8,-4.1 -15.3,-4.1 l 0.1,8.5 15.2,-4.4 z"
         class="st1"
         id="XMLID_157_"
         inkscape:connector-curvature="0"
         style="fill:#f5dd4f" /><polygon
         points="182.9,151.1 198.1,155.5 202,140 "
         class="st2"
         id="XMLID_156_"
         style="fill:#d9174a" /><path
         d="m 213.5,129 c 0,-5.6 -1.5,-10.8 -4.1,-15.3 l -7.4,4.3 11.5,11 z"
         class="st3"
         id="XMLID_155_"
         inkscape:connector-curvature="0"
         style="fill:#f1937d" /><polygon
         points="182.9,129 182.9,151.1 202,140 "
         class="st4"
         id="XMLID_154_"
         style="fill:#b7193c" /><path
         d="m 167.6,102.5 c -4.6,2.7 -8.5,6.6 -11.2,11.2 l 7.3,4.2 3.9,-15.4 z"
         class="st5"
         id="XMLID_153_"
         inkscape:connector-curvature="0"
         style="fill:#dee456" /><path
         d="m 156.4,113.7 c -2.6,4.5 -4.1,9.7 -4.1,15.3 l 11.4,-11.1 -7.3,-4.2 z"
         class="st6"
         id="XMLID_152_"
         inkscape:connector-curvature="0"
         style="fill:#48ace2" /><path
         d="m 182.9,98.4 c -5.6,0 -10.7,1.5 -15.3,4.1 l 15.3,4.4 0,-8.5 z"
         class="st7"
         id="XMLID_151_"
         inkscape:connector-curvature="0"
         style="fill:#f4ed50" /><path
         d="m 152.3,129 c 0,5.6 1.5,10.7 4,15.3 l 7.4,-4.2 -11.4,-11.1 z"
         class="st8"
         id="XMLID_150_"
         inkscape:connector-curvature="0"
         style="fill:#5b98d2" /><path
         d="m 209.4,113.7 c -2.7,-4.6 -6.5,-8.5 -11.2,-11.2 l 3.8,15.5 7.4,-4.3 z"
         class="st9"
         id="XMLID_149_"
         inkscape:connector-curvature="0"
         style="fill:#f7cf72" /><polygon
         points="202,118 198.2,102.5 182.9,106.9 "
         class="st10"
         id="XMLID_148_"
         style="fill:#f5b743" /><polygon
         points="202,140 213.5,129 202,118 "
         class="st11"
         id="XMLID_147_"
         style="fill:#ea504c" /><polygon
         points="182.9,106.9 167.6,102.5 163.7,118 "
         class="st12"
         id="XMLID_146_"
         style="fill:#e0d521" /><polygon
         points="163.7,118 152.3,129 163.8,140 "
         class="st13"
         id="XMLID_145_"
         style="fill:#158aa7" /><polygon
         points="182.9,129 182.9,106.9 163.7,118 "
         class="st14"
         id="XMLID_144_"
         style="fill:#c7bb19" /><polygon
         points="182.9,129 202,140 202,118 "
         class="st15"
         id="XMLID_143_"
         style="fill:#d4161f" /><polygon
         points="163.8,140 167.6,155.5 182.9,151.1 "
         class="st16"
         id="XMLID_142_"
         style="fill:#2e4ea0" /><polygon
         points="182.9,129 202,118 182.9,106.9 "
         class="st17"
         id="XMLID_141_"
         style="fill:#e39014" /><polygon
         points="182.9,129 163.8,140 182.9,151.1 "
         class="st18"
         id="XMLID_140_"
         style="fill:#263290" /><polygon
         points="182.9,129 163.7,118 163.8,140 "
         class="st19"
         id="XMLID_139_"
         style="fill:#0b6b95" /><path
         d="m 156.3,144.3 c 2.7,4.6 6.6,8.5 11.2,11.2 l -3.8,-15.5 -7.4,4.3 z"
         class="st20"
         id="XMLID_138_"
         inkscape:connector-curvature="0"
         style="fill:#4270b7" /><path
         d="m 182.9,159.6 c 5.6,0 10.6,-1.6 15.2,-4.1 l -15.2,-4.4 0,8.5 z"
         class="st21"
         id="XMLID_137_"
         inkscape:connector-curvature="0"
         style="fill:#e95d7a" /><path
         d="m 198.1,155.5 c 4.6,-2.7 8.6,-6.5 11.3,-11.2 l -7.4,-4.3 -3.9,15.5 z"
         class="st22"
         id="XMLID_136_"
         inkscape:connector-curvature="0"
         style="fill:#ea5973" /><path
         d="m 167.6,155.5 c 4.5,2.6 9.8,4.1 15.4,4.1 l 0,-8.5 -15.4,4.4 z"
         class="st23"
         id="XMLID_135_"
         inkscape:connector-curvature="0"
         style="fill:#5673b8" /><path
         d="m 202,140 7.4,4.3 c 2.6,-4.5 4,-9.7 4,-15.3 L 202,140 Z"
         class="st24"
         id="XMLID_134_"
         inkscape:connector-curvature="0"
         style="fill:#ed787d" /><g
         id="XMLID_103_"><path
           d="M 183,160.6"
           class="st25"
           id="XMLID_133_"
           inkscape:connector-curvature="0"
           style="fill:#ffffff;stroke:#ffffff;stroke-width:2;stroke-miterlimit:10" /><path
           d="M 183,97.9"
           class="st25"
           id="XMLID_132_"
           inkscape:connector-curvature="0"
           style="fill:#ffffff;stroke:#ffffff;stroke-width:2;stroke-miterlimit:10" /><path
           d="M 210.2,144.9"
           class="st25"
           id="XMLID_131_"
           inkscape:connector-curvature="0"
           style="fill:#ffffff;stroke:#ffffff;stroke-width:2;stroke-miterlimit:10" /><path
           d="M 155.9,113.6"
           class="st25"
           id="XMLID_130_"
           inkscape:connector-curvature="0"
           style="fill:#ffffff;stroke:#ffffff;stroke-width:2;stroke-miterlimit:10" /><path
           d="M 210.2,113.6"
           class="st25"
           id="XMLID_129_"
           inkscape:connector-curvature="0"
           style="fill:#ffffff;stroke:#ffffff;stroke-width:2;stroke-miterlimit:10" /><path
           d="M 155.9,144.9"
           class="st25"
           id="XMLID_128_"
           inkscape:connector-curvature="0"
           style="fill:#ffffff;stroke:#ffffff;stroke-width:2;stroke-miterlimit:10" /><path
           d="M 163.3,140.7"
           class="st25"
           id="XMLID_127_"
           inkscape:connector-curvature="0"
           style="fill:#ffffff;stroke:#ffffff;stroke-width:2;stroke-miterlimit:10" /><path
           d="M 167.4,156.4"
           class="st25"
           id="XMLID_126_"
           inkscape:connector-curvature="0"
           style="fill:#ffffff;stroke:#ffffff;stroke-width:2;stroke-miterlimit:10" /><path
           d="M 183,152.1"
           class="st25"
           id="XMLID_125_"
           inkscape:connector-curvature="0"
           style="fill:#ffffff;stroke:#ffffff;stroke-width:2;stroke-miterlimit:10" /><path
           d="M 167.4,156.4"
           class="st25"
           id="XMLID_124_"
           inkscape:connector-curvature="0"
           style="fill:#ffffff;stroke:#ffffff;stroke-width:2;stroke-miterlimit:10" /><path
           d="M 198.7,156.4"
           class="st26"
           id="XMLID_123_"
           inkscape:connector-curvature="0"
           style="fill:none;stroke:#ffffff;stroke-width:2;stroke-miterlimit:10" /><path
           d="M 183,152.1"
           class="st26"
           id="XMLID_122_"
           inkscape:connector-curvature="0"
           style="fill:none;stroke:#ffffff;stroke-width:2;stroke-miterlimit:10" /><path
           d="M 198.7,156.4"
           class="st26"
           id="XMLID_121_"
           inkscape:connector-curvature="0"
           style="fill:none;stroke:#ffffff;stroke-width:2;stroke-miterlimit:10" /><path
           d="M 202.8,140.7"
           class="st26"
           id="XMLID_120_"
           inkscape:connector-curvature="0"
           style="fill:none;stroke:#ffffff;stroke-width:2;stroke-miterlimit:10" /><path
           d="M 214.3,129.3"
           class="st26"
           id="XMLID_119_"
           inkscape:connector-curvature="0"
           style="fill:none;stroke:#ffffff;stroke-width:2;stroke-miterlimit:10" /><path
           d="M 202.8,140.7"
           class="st26"
           id="XMLID_118_"
           inkscape:connector-curvature="0"
           style="fill:none;stroke:#ffffff;stroke-width:2;stroke-miterlimit:10" /><path
           d="M 214.3,129.3"
           class="st26"
           id="XMLID_117_"
           inkscape:connector-curvature="0"
           style="fill:none;stroke:#ffffff;stroke-width:2;stroke-miterlimit:10" /><path
           d="M 202.8,117.9"
           class="st26"
           id="XMLID_116_"
           inkscape:connector-curvature="0"
           style="fill:none;stroke:#ffffff;stroke-width:2;stroke-miterlimit:10" /><path
           d="M 202.8,117.9"
           class="st26"
           id="XMLID_115_"
           inkscape:connector-curvature="0"
           style="fill:none;stroke:#ffffff;stroke-width:2;stroke-miterlimit:10" /><path
           d="M 198.7,102.2"
           class="st26"
           id="XMLID_114_"
           inkscape:connector-curvature="0"
           style="fill:none;stroke:#ffffff;stroke-width:2;stroke-miterlimit:10" /><path
           d="M 198.7,102.2"
           class="st26"
           id="XMLID_113_"
           inkscape:connector-curvature="0"
           style="fill:none;stroke:#ffffff;stroke-width:2;stroke-miterlimit:10" /><path
           d="M 183,106.4"
           class="st26"
           id="XMLID_112_"
           inkscape:connector-curvature="0"
           style="fill:none;stroke:#ffffff;stroke-width:2;stroke-miterlimit:10" /><path
           d="M 183,106.4"
           class="st26"
           id="XMLID_111_"
           inkscape:connector-curvature="0"
           style="fill:none;stroke:#ffffff;stroke-width:2;stroke-miterlimit:10" /><path
           d="M 167.4,102.2"
           class="st26"
           id="XMLID_110_"
           inkscape:connector-curvature="0"
           style="fill:none;stroke:#ffffff;stroke-width:2;stroke-miterlimit:10" /><path
           d="M 163.3,117.9"
           class="st26"
           id="XMLID_109_"
           inkscape:connector-curvature="0"
           style="fill:none;stroke:#ffffff;stroke-width:2;stroke-miterlimit:10" /><path
           d="M 167.4,102.2"
           class="st26"
           id="XMLID_108_"
           inkscape:connector-curvature="0"
           style="fill:none;stroke:#ffffff;stroke-width:2;stroke-miterlimit:10" /><path
           d="M 151.7,129.3"
           class="st26"
           id="XMLID_107_"
           inkscape:connector-curvature="0"
           style="fill:none;stroke:#ffffff;stroke-width:2;stroke-miterlimit:10" /><path
           d="M 163.3,117.9"
           class="st26"
           id="XMLID_106_"
           inkscape:connector-curvature="0"
           style="fill:none;stroke:#ffffff;stroke-width:2;stroke-miterlimit:10" /><path
           d="M 163.3,140.7"
           class="st26"
           id="XMLID_105_"
           inkscape:connector-curvature="0"
           style="fill:none;stroke:#ffffff;stroke-width:2;stroke-miterlimit:10" /><path
           d="M 151.7,129.3"
           class="st26"
           id="XMLID_104_"
           inkscape:connector-curvature="0"
           style="fill:none;stroke:#ffffff;stroke-width:2;stroke-miterlimit:10" /></g><path
         d="M 191.1,133.2"
         class="st27"
         id="XMLID_102_"
         inkscape:connector-curvature="0"
         style="opacity:0.3;fill:#ffffff" /><path
         d="m 210.4,98.9 -1.7,0 0,-0.7 4.3,0 0,0.7 -1.7,0 0,4.9 -0.9,0 0,-4.9 z"
         class="st28"
         id="XMLID_100_"
         inkscape:connector-curvature="0"
         style="fill:#ffffff" /><path
         d="m 213.9,98.1 1.1,0 1.1,3 c 0.1,0.4 0.3,0.8 0.4,1.2 l 0,0 c 0.1,-0.4 0.3,-0.8 0.4,-1.2 l 1.1,-3 1.1,0 0,5.9 -0.9,0 0,-2.9 c 0,-0.5 0.1,-1.3 0.1,-1.8 l 0,0 -0.5,1.4 -1.1,2.8 -0.6,0 -1.1,-2.8 -0.5,-1.4 0,0 c 0,0.5 0.1,1.3 0.1,1.8 l 0,2.9 -0.9,0 0,-5.9 z"
         class="st28"
         id="XMLID_98_"
         inkscape:connector-curvature="0"
         style="fill:#ffffff" /><g
         id="XMLID_95_"><g
           id="XMLID_96_"><path
             d="m 181.2,105.9 0.1,40.4 -12.6,-7.2 9.5,-5.5 c 0,0 -1.4,-2.7 -4.5,-1.2 l -11.6,6.7 22.5,12.9 0,-40.4 12.5,7.2 -9.5,5.5 c 0,0 1.7,2.8 4.6,1.1 l 11.6,-6.7 -22.6,-12.8 z"
             class="st28"
             id="XMLID_97_"
             inkscape:connector-curvature="0"
             style="fill:#ffffff" /></g></g></g><path
       d="m 407,109.7 c -0.3,0.7 -0.5,1.3 -0.8,1.9 l 13.4,0 0,1.9 -14.3,0 c -0.5,1.1 -1,2.1 -1.5,3.1 0.1,0 -0.1,0 0,0 l 11,0 c 1.8,0 3.4,1.5 3.4,3.6 l 0,10.7 c 0,1.9 -1.5,3.6 -3.3,3.5 l -2,0 0,-1.9 2.1,0 c 0.6,-0.1 1.1,-0.7 1.1,-1.6 l 0,-1.2 -13.4,0 0,5 -2.3,0 0,-12.9 c -0.9,1.2 -1.6,1.8 -2.6,2.8 l -1.4,-1.6 c 2.5,-2.5 4.7,-5.3 6.7,-9.3 l -5.9,0 0,-1.9 6.8,0 c 0.4,-0.8 0.8,-1.9 1.2,-2.8 l 1.8,0.7 z m -4.5,10.3 0,2.1 13.4,0 0,-2 c 0,-0.9 -0.8,-1.6 -1.1,-1.6 l -11.1,0 c -0.4,0 -1.2,0.8 -1.2,1.5 z m 0,7.6 13.4,0 0,-3.5 -13.4,0 0,3.5 z"
       class="st28"
       id="XMLID_90_"
       inkscape:connector-curvature="0"
       style="fill:#ffffff" /><path
       d="m 420.7,117.9 21.7,0 0,2 -15.4,0 -2.6,12.3 13.5,0 c 0.5,-0.1 1.2,-0.5 1.1,-2.6 l 0,-6.1 2.2,0 0,6 c 0.2,2.8 -1.2,4.5 -3,4.6 l -16.5,0 2.8,-14.3 -3.8,0 0,-1.9 z m 0.9,-6.3 19.9,0 0,1.9 -19.9,0 0,-1.9 z"
       class="st28"
       id="XMLID_87_"
       inkscape:connector-curvature="0"
       style="fill:#ffffff" /><path
       d="m 220.5,110 c 0,-0.5 0.5,-1 1.2,-1 0.6,0 1.1,0.5 1.1,1 l 0,16.6 c 0,3.4 2.2,5.4 4.6,5.4 l 4.4,0 c 2.7,-0.4 4.3,-3 4.3,-5.4 l 0,-16.6 c 0,-0.6 0.5,-1.1 1.1,-1.1 0.6,0 1.2,0.5 1.2,1 l 0,16.6 c -0.2,4 -2.6,7.3 -6.6,7.5 l -4.4,0 c -3.4,-0.1 -6.8,-2.6 -6.8,-7.5 L 220.5,110 Z"
       class="st28"
       id="XMLID_85_"
       inkscape:connector-curvature="0"
       style="fill:#ffffff" /><path
       d="m 251.4,115.8 c 3.1,0 5.8,2.3 5.8,6 l 0,11.3 c 0,0.5 -0.5,1 -1.1,1 -0.6,0 -1.1,-0.5 -1.1,-1 l 0,-11.3 c 0,-2.4 -1.5,-4.1 -3.6,-4.1 l -5.9,0 0,15.3 c 0,0.6 -0.5,1.1 -1.1,1.1 -0.7,0 -1.1,-0.5 -1.1,-1 l 0,-15.7 c 0,-0.8 0.6,-1.6 1.7,-1.6 l 6.4,0 z"
       class="st28"
       id="XMLID_83_"
       inkscape:connector-curvature="0"
       style="fill:#ffffff" /><path
       d="m 261.8,110 c 0,-0.6 0.4,-1 1,-1 0.6,0 1.1,0.4 1.1,1 l 0,0.7 c 0,0.6 -0.4,1 -1.1,1 -0.6,0 -1,-0.4 -1,-1 l 0,-0.7 z m 0,6.7 c 0,-0.6 0.4,-1.1 1,-1.1 0.6,0 1.1,0.4 1.1,1.1 l 0,16.3 c 0,0.6 -0.4,1 -1.1,1 -0.6,0 -1,-0.4 -1,-1 l 0,-16.3 z"
       class="st28"
       id="XMLID_80_"
       inkscape:connector-curvature="0"
       style="fill:#ffffff" /><path
       d="m 269.9,113 c 0,-0.6 0.5,-1 1.1,-1 0.6,0 1.1,0.5 1.1,1 l 0,3 4.7,0 c 0.7,0 1.1,0.4 1.1,1 0,0.6 -0.4,1 -1.1,1 l -4.7,0 0,10.5 c 0,2.6 0.8,3.9 3.4,3.9 l 1.3,0 c 0.7,0 1.1,0.5 1.1,1 0,0.6 -0.4,1 -1.1,1 l -1.3,0 c -4,0 -5.5,-2.1 -5.5,-5.9 l 0,-10.5 -2,0 c -0.6,0 -1.1,-0.4 -1.1,-1 0,-0.6 0.4,-1 1.1,-1 l 1.9,0 0,-3 z"
       class="st28"
       id="XMLID_78_"
       inkscape:connector-curvature="0"
       style="fill:#ffffff" /><path
       d="m 280.8,122.8 c 0,-4.4 3.1,-7 6.9,-7 4.5,0 7.1,2.5 7.1,7 l 0,1.7 c 0,0.8 -0.7,1.5 -1.6,1.5 l -10.2,0 c 0,4.4 1,6.2 4.6,6.2 l 6,0 c 0.7,0 1.1,0.4 1.1,1 0,0.5 -0.4,1 -1,1 l -6.1,0 c -5.4,0 -6.8,-2.8 -6.8,-8.5 l 0,-2.9 z m 11.8,-0.2 c 0,-3.2 -1.7,-4.9 -4.9,-4.9 -2.9,0 -4.7,1.9 -4.7,4.9 l 0,1.6 9.6,0 0,-1.6 z"
       class="st28"
       id="XMLID_75_"
       inkscape:connector-curvature="0"
       style="fill:#ffffff" /><path
       d="m 311.6,132.5 c 0,0.8 -0.8,1.6 -1.7,1.6 l -6.3,0 c -4.4,0 -5.9,-4.1 -5.9,-6.8 l 0,-5.5 c 0,-3.8 2.7,-6 5.8,-6 l 5.9,0 0,-5.8 c 0,-0.6 0.5,-1 1.1,-1 0.6,0 1.1,0.4 1.1,1 l 0,22.5 z m -2.1,-14.7 -5.9,0 c -1.9,0 -3.6,1.6 -3.6,4.1 l 0,5.4 c 0,2.9 1.6,4.8 3.7,4.8 l 5.8,0 0,-14.3 z"
       class="st28"
       id="XMLID_72_"
       inkscape:connector-curvature="0"
       style="fill:#ffffff" /><path
       d="m 316.7,134.1 c -0.6,0 -1.1,-0.5 -1.1,-1 0,-0.5 0.4,-1.1 1,-1.1 l 7.1,0 c 3.7,0 5.7,-1.5 5.7,-5.5 0,-3.1 -1.8,-3.7 -5.8,-4.4 -4.2,-0.8 -8,-1.6 -8,-6.8 0,-4.6 3.1,-6.4 8,-6.4 l 6.2,0 c 1.1,0 1.2,0.6 1.2,1.1 0,0.5 -0.5,1 -1.1,1 l -6.2,0 c -3.8,0 -5.9,1.1 -5.9,4.3 0,3.6 2.4,4.1 6.2,4.8 4.7,0.8 7.5,2 7.5,6.5 0,5.3 -2.8,7.5 -7.8,7.5 l -7,0 z"
       class="st28"
       id="XMLID_70_"
       inkscape:connector-curvature="0"
       style="fill:#ffffff" /><path
       d="m 336.6,113 c 0,-0.6 0.5,-1 1.1,-1 0.6,0 1.1,0.5 1.1,1 l 0,3 4.7,0 c 0.7,0 1.1,0.4 1.1,1 0,0.6 -0.4,1 -1,1 l -4.8,0 0,10.4 c 0,2.6 1,3.9 3.5,3.9 l 1.3,0 c 0.6,0 1,0.5 1,1 0,0.5 -0.4,1 -1,1 l -1.3,0 c -3.9,0.1 -5.7,-2.1 -5.7,-5.9 l 0,-10.4 -2,0 c -0.6,0 -1,-0.4 -1,-1 0,-0.6 0.4,-1 1,-1 l 2,0 0,-3 z"
       class="st28"
       id="XMLID_68_"
       inkscape:connector-curvature="0"
       style="fill:#ffffff" /><path
       d="m 349,117.8 c -0.7,0 -1,-0.4 -1,-1 0,-0.5 0.4,-1 1,-1 l 6.3,0 c 3.5,0 5.4,2.3 5.4,5.2 l 0,11.6 c 0,0.9 -0.5,1.5 -2,1.5 l -6.5,0 c -3,0.1 -5.1,-2.4 -5.1,-5.2 0,-2.8 1.9,-5.3 5.2,-5.2 l 6.3,0 0,-2.4 c 0,-1.9 -1.1,-3.4 -3.3,-3.4 l -6.3,-0.1 z m 9.5,14.3 0,-6.4 -6.4,0 c -1.6,0 -3.1,1.5 -3.1,3.2 0,1.7 1.4,3.1 3.1,3.1 l 6.4,0.1 z"
       class="st28"
       id="XMLID_65_"
       inkscape:connector-curvature="0"
       style="fill:#ffffff" /><path
       d="m 375.9,115.8 c 0.6,0 1,0.6 1,1.1 0,0.4 -0.4,0.8 -1,0.8 l -4,0 c -3,-0.4 -5.3,2.1 -5.2,5.5 l 0,3.4 c 0,3.8 2,5.7 5.2,5.5 l 3.9,0 c 0.6,0 1,0.4 1,1 0,0.5 -0.4,1 -1,1 l -3.9,0 c -5,0.3 -7.4,-2.5 -7.4,-7.6 l 0,-3.3 c -0.3,-5 2.9,-7.7 7.4,-7.4 l 4,0 z"
       class="st28"
       id="XMLID_63_"
       inkscape:connector-curvature="0"
       style="fill:#ffffff" /><path
       d="m 380.1,110 c 0,-0.6 0.4,-1 1.1,-1 0.6,0 1.1,0.4 1.1,1 l 0,13.2 2.5,0 c 0.3,0 0.5,-0.2 0.6,-0.3 l 5.3,-6.4 c 0.2,-0.3 0.6,-0.7 1,-0.7 0.3,0 0.6,0.2 0.8,0.4 0.2,0.2 0.3,0.5 0.3,0.8 0,0.2 -0.2,0.7 -0.4,0.9 l -5.5,6.4 6.2,8.2 c 0.1,0.2 0.2,0.4 0.2,0.6 0,0.3 -0.1,0.5 -0.4,0.8 -0.2,0.2 -0.5,0.3 -0.7,0.3 -0.3,0 -0.7,-0.2 -0.9,-0.4 l -5.5,-7.5 c -0.3,-0.4 -0.5,-0.8 -0.9,-0.8 l -2.5,0 0,7.6 c 0,0.6 -0.5,1.1 -1.1,1.1 -0.6,0 -1.1,-0.5 -1.1,-1 l 0,-23.2 z"
       class="st28"
       id="XMLID_61_"
       inkscape:connector-curvature="0"
       style="fill:#ffffff" /><g
       id="XMLID_3_"><path
         d="m 224.7,153.8 c -1.9,0 -3.4,-1.4 -3.4,-3.5 l 0,-3.1 c 0,-2.1 1.5,-3.7 3.4,-3.7 l 1.2,0 c 2,0 3.4,1.6 3.4,3.7 l 0,3.1 c 0,2.1 -1.5,3.5 -3.4,3.5 l -1.2,0 z m 1.3,-1.1 c 1.3,0 2.2,-1 2.2,-2.4 l 0,-3.3 c 0,-1.4 -0.9,-2.6 -2.2,-2.6 l -1.2,0 c -1.3,0 -2.2,1.2 -2.2,2.6 l 0,3.3 c 0,1.4 0.9,2.4 2.2,2.4 l 1.2,0 z"
         class="st28"
         id="XMLID_58_"
         inkscape:connector-curvature="0"
         style="fill:#ffffff" /><path
         d="m 231.9,144.3 c 0,-0.5 0.4,-0.9 0.9,-0.9 l 3.5,0 c 2.4,0 3.3,2.4 3.3,3.9 l 0,3.1 c 0,2.1 -1.5,3.4 -3.2,3.4 l -3.3,0 0,3.3 c 0,0.3 -0.3,0.6 -0.6,0.6 -0.3,0 -0.6,-0.2 -0.6,-0.6 l 0,-12.8 z m 1.3,8.3 3.3,0 c 1.1,0 2,-0.9 2,-2.3 l 0,-3 c 0,-1.6 -0.9,-2.7 -2.1,-2.7 l -3.2,0 0,8 z"
         class="st28"
         id="XMLID_55_"
         inkscape:connector-curvature="0"
         style="fill:#ffffff" /><path
         d="m 241.7,147.3 c 0,-2.5 1.7,-3.9 3.9,-3.9 2.5,0 4,1.4 4,3.9 l 0,1 c 0,0.5 -0.4,0.8 -0.9,0.8 l -5.7,0 c 0,2.5 0.6,3.5 2.6,3.5 l 3.1,0 c 0.4,0 0.6,0.2 0.6,0.6 0,0.3 -0.2,0.5 -0.6,0.5 l -3.1,0 c -3,0 -3.8,-1.6 -3.8,-4.8 l -0.1,-1.6 z m 6.6,-0.1 c 0,-1.8 -0.9,-2.7 -2.7,-2.7 -1.6,0 -2.6,1.1 -2.6,2.7 l 0,0.9 5.4,0 0,-0.9 z"
         class="st28"
         id="XMLID_52_"
         inkscape:connector-curvature="0"
         style="fill:#ffffff" /><path
         d="m 256.2,143.3 c 1.7,0 3.2,1.3 3.2,3.4 l 0,6.4 c 0,0.3 -0.3,0.6 -0.6,0.6 -0.4,0 -0.6,-0.3 -0.6,-0.6 l 0,-6.4 c 0,-1.4 -0.8,-2.3 -2,-2.3 l -3.3,0 0,8.6 c 0,0.4 -0.3,0.6 -0.6,0.6 -0.4,0 -0.6,-0.3 -0.6,-0.6 l 0,-8.9 c 0,-0.5 0.3,-0.9 0.9,-0.9 l 3.6,0.1 z"
         class="st28"
         id="XMLID_50_"
         inkscape:connector-curvature="0"
         style="fill:#ffffff" /><path
         d="m 268.1,143.4 c 0.4,0 0.6,0.2 0.6,0.5 0,0.3 -0.3,0.6 -0.6,0.6 l -3.1,0 c -1.3,0 -2.3,0.5 -2.3,1.7 0,1.1 0.7,1.5 2.5,1.7 l 0.7,0.1 c 2,0.3 3.2,1.1 3.2,2.8 0,2.3 -1.6,3 -3.9,3 l -2.8,0 c -0.3,0 -0.6,-0.2 -0.6,-0.5 0,-0.3 0.2,-0.6 0.6,-0.6 l 2.8,0 c 1.6,0 2.7,-0.5 2.7,-1.8 0,-0.9 -0.8,-1.5 -2.2,-1.7 l -0.9,-0.1 c -2,-0.2 -3.3,-0.9 -3.3,-2.8 0,-2 1.6,-2.8 3.5,-2.8 l 3.1,0 z"
         class="st28"
         id="XMLID_48_"
         inkscape:connector-curvature="0"
         style="fill:#ffffff" /><path
         d="m 272.1,141.6 c 0,-0.3 0.3,-0.6 0.6,-0.6 0.4,0 0.6,0.3 0.6,0.6 l 0,1.7 2.6,0 c 0.4,0 0.6,0.3 0.6,0.6 0,0.3 -0.2,0.6 -0.6,0.6 l -2.6,0 0,6 c 0,1.5 0.4,2.2 1.9,2.2 l 0.8,0 c 0.4,0 0.6,0.3 0.6,0.6 0,0.3 -0.2,0.6 -0.6,0.6 l -0.8,0 c -2.2,0 -3.1,-1.2 -3.1,-3.4 l 0,-6 -1.1,0 c -0.4,0 -0.6,-0.2 -0.6,-0.6 0,-0.3 0.2,-0.6 0.6,-0.6 l 1.1,0 0,-1.7 z"
         class="st28"
         id="XMLID_46_"
         inkscape:connector-curvature="0"
         style="fill:#ffffff" /><path
         d="m 279.3,144.5 c -0.4,0 -0.6,-0.2 -0.6,-0.6 0,-0.3 0.2,-0.5 0.6,-0.5 l 3.6,0 c 1.6,0 2.8,1.3 2.8,3 l 0,6.5 c 0,0.5 -0.4,0.9 -0.9,0.9 l -3.8,0 c -1.7,0 -3,-1.3 -3,-2.9 0,-1.6 1.3,-3 3,-3 l 3.4,0 0,-1.4 c 0,-1.1 -0.7,-1.9 -1.7,-1.9 l -3.4,0 z m 5.2,8.1 0,-3.6 -3.4,0 c -1,0 -1.8,0.8 -1.8,1.8 0,1 0.8,1.8 1.8,1.8 l 3.4,0 z"
         class="st28"
         id="XMLID_43_"
         inkscape:connector-curvature="0"
         style="fill:#ffffff" /><path
         d="m 294.2,143.3 c 0.4,0 0.6,0.3 0.6,0.5 0,0.3 -0.2,0.6 -0.6,0.6 l -2.3,0 c -2,0 -2.8,1 -2.8,3 l 0,1.9 c 0,2.2 0.9,3.2 2.8,3.2 l 2.3,0 c 0.4,0 0.6,0.2 0.6,0.6 0,0.3 -0.2,0.5 -0.6,0.5 l -2.3,0 c -2.7,0 -4,-1.4 -4,-4.3 l 0,-1.9 c 0,-2.7 1.3,-4.2 4,-4.2 l 2.3,0 z"
         class="st28"
         id="XMLID_41_"
         inkscape:connector-curvature="0"
         style="fill:#ffffff" /><path
         d="m 297.1,140 c 0,-0.3 0.2,-0.6 0.6,-0.6 0.4,0 0.6,0.3 0.6,0.6 l 0,7.5 1.4,0 c 0.2,0 0.3,-0.1 0.3,-0.2 l 3,-3.6 c 0.1,-0.2 0.3,-0.2 0.5,-0.2 0.1,0 0.3,0 0.4,0.1 0.1,0.1 0.2,0.3 0.2,0.4 0,0.1 -0.1,0.3 -0.2,0.4 l -3.1,3.6 3.5,4.6 c 0.1,0.1 0.1,0.2 0.1,0.3 0,0.2 -0.1,0.3 -0.2,0.4 -0.1,0.1 -0.3,0.2 -0.4,0.2 -0.2,0 -0.4,-0.1 -0.5,-0.3 l -3.1,-4.2 c -0.2,-0.2 -0.3,-0.4 -0.5,-0.4 l -1.4,0 0,4.3 c 0,0.4 -0.3,0.6 -0.6,0.6 -0.4,0 -0.6,-0.3 -0.6,-0.6 l 0,-12.9 z"
         class="st28"
         id="XMLID_39_"
         inkscape:connector-curvature="0"
         style="fill:#ffffff" /><path
         d="m 312.8,139.5 c 0,-0.5 0.4,-0.9 0.9,-0.9 l 2.6,0 c 0.4,0 0.6,0.2 0.6,0.6 0,0.3 -0.2,0.6 -0.6,0.6 l -2.3,0 0,15.2 2.2,0 c 0.4,0 0.6,0.2 0.6,0.5 0,0.3 -0.2,0.6 -0.6,0.6 l -2.6,0 c -0.5,0 -0.9,-0.4 -0.9,-0.9 l 0,-15.7 z"
         class="st28"
         id="XMLID_37_"
         inkscape:connector-curvature="0"
         style="fill:#ffffff" /><path
         d="m 325.1,143.3 c 0.4,0 0.6,0.3 0.6,0.5 0,0.3 -0.2,0.6 -0.6,0.6 l -2.3,0 c -2,0 -2.8,1 -2.8,3 l 0,1.9 c 0,2.2 0.9,3.2 2.8,3.2 l 2.3,0 c 0.4,0 0.6,0.2 0.6,0.6 0,0.3 -0.2,0.5 -0.6,0.5 l -2.3,0 c -2.7,0 -4,-1.4 -4,-4.3 l 0,-1.9 c 0,-2.7 1.3,-4.2 4,-4.2 l 2.3,0 z"
         class="st28"
         id="XMLID_35_"
         inkscape:connector-curvature="0"
         style="fill:#ffffff" /><path
         d="m 328,140 c 0,-0.3 0.2,-0.6 0.6,-0.6 0.3,0 0.6,0.3 0.6,0.6 l 0,13 c 0,0.4 -0.3,0.6 -0.6,0.6 -0.4,0 -0.6,-0.3 -0.6,-0.6 l 0,-13 z"
         class="st28"
         id="XMLID_33_"
         inkscape:connector-curvature="0"
         style="fill:#ffffff" /><path
         d="m 334.9,153.8 c -1.9,0 -3.4,-1.4 -3.4,-3.5 l 0,-3.1 c 0,-2.1 1.5,-3.7 3.4,-3.7 l 1.2,0 c 2,0 3.4,1.6 3.4,3.7 l 0,3.1 c 0,2.1 -1.5,3.5 -3.4,3.5 l -1.2,0 z m 1.2,-1.1 c 1.3,0 2.2,-1 2.2,-2.4 l 0,-3.3 c 0,-1.4 -0.9,-2.6 -2.2,-2.6 l -1.2,0 c -1.3,0 -2.2,1.2 -2.2,2.6 l 0,3.3 c 0,1.4 0.9,2.4 2.2,2.4 l 1.2,0 z"
         class="st28"
         id="XMLID_30_"
         inkscape:connector-curvature="0"
         style="fill:#ffffff" /><path
         d="m 348.3,144 c 0,-0.3 0.2,-0.6 0.6,-0.6 0.4,0 0.6,0.3 0.6,0.6 l 0,8.9 c 0,0.5 -0.4,0.9 -0.9,0.9 l -3.6,0 c -1.7,0 -3.2,-1.3 -3.2,-3.4 l 0,-6.4 c 0,-0.3 0.3,-0.6 0.6,-0.6 0.4,0 0.6,0.3 0.6,0.6 l 0,6.4 c 0,1.4 1,2.3 2,2.3 l 3.3,0 0,-8.7 z"
         class="st28"
         id="XMLID_28_"
         inkscape:connector-curvature="0"
         style="fill:#ffffff" /><path
         d="m 359.4,152.8 c 0,0.5 -0.4,0.9 -0.9,0.9 l -3.5,0 c -2.4,0 -3.3,-2.3 -3.3,-3.8 l 0,-3.1 c 0,-2.1 1.5,-3.4 3.2,-3.4 l 3.3,0 0,-3.4 c 0,-0.3 0.3,-0.6 0.6,-0.6 0.3,0 0.6,0.2 0.6,0.6 l 0,12.8 z m -1.2,-8.3 -3.3,0 c -1.1,0 -2,0.9 -2,2.3 l 0,3 c 0,1.6 0.9,2.7 2.1,2.7 l 3.2,0 0,-8 z"
         class="st28"
         id="XMLID_25_"
         inkscape:connector-curvature="0"
         style="fill:#ffffff" /><path
         d="m 365.8,155.3 c 0,0.5 -0.4,0.9 -0.9,0.9 l -2.6,0 c -0.3,0 -0.6,-0.2 -0.6,-0.6 0,-0.3 0.3,-0.5 0.6,-0.5 l 2.2,0 0,-15.2 -2.3,0 c -0.3,0 -0.6,-0.3 -0.6,-0.6 0,-0.3 0.3,-0.6 0.6,-0.6 l 2.6,0 c 0.5,0 0.9,0.4 0.9,0.9 l 0,15.7 z"
         class="st28"
         id="XMLID_23_"
         inkscape:connector-curvature="0"
         style="fill:#ffffff" /><path
         d="m 381.1,143.4 c 0.4,0 0.6,0.2 0.6,0.5 0,0.3 -0.3,0.6 -0.6,0.6 l -3.1,0 c -1.3,0 -2.3,0.5 -2.3,1.7 0,1.1 0.7,1.5 2.5,1.7 l 0.7,0.1 c 2,0.3 3.2,1.1 3.2,2.8 0,2.3 -1.6,3 -3.9,3 l -2.8,0 c -0.3,0 -0.6,-0.2 -0.6,-0.5 0,-0.3 0.2,-0.6 0.6,-0.6 l 2.8,0 c 1.6,0 2.7,-0.5 2.7,-1.8 0,-0.9 -0.8,-1.5 -2.2,-1.7 l -0.9,-0.1 c -2,-0.2 -3.3,-0.9 -3.3,-2.8 0,-2 1.6,-2.8 3.5,-2.8 l 3.1,0 z"
         class="st28"
         id="XMLID_21_"
         inkscape:connector-curvature="0"
         style="fill:#ffffff" /><path
         d="m 384,147.3 c 0,-2.5 1.7,-3.9 3.9,-3.9 2.5,0 4,1.4 4,3.9 l 0,1 c 0,0.5 -0.4,0.8 -0.9,0.8 l -5.7,0 c 0,2.5 0.6,3.5 2.6,3.5 l 3.1,0 c 0.4,0 0.6,0.2 0.6,0.6 0,0.3 -0.2,0.5 -0.6,0.5 l -3.1,0 c -3,0 -3.8,-1.6 -3.8,-4.8 l -0.1,-1.6 z m 6.5,-0.1 c 0,-1.8 -0.9,-2.7 -2.7,-2.7 -1.6,0 -2.6,1.1 -2.6,2.7 l 0,0.9 5.4,0 0,-0.9 z"
         class="st28"
         id="XMLID_18_"
         inkscape:connector-curvature="0"
         style="fill:#ffffff" /><path
         d="m 398.6,143.1 c 0.4,0 0.6,0.3 0.6,0.5 0,0.3 -0.2,0.5 -0.6,0.5 l -0.6,0 c -1.9,0 -2.8,1.1 -2.8,2.9 l 0,6 c 0,0.3 -0.3,0.6 -0.6,0.6 -0.4,0 -0.6,-0.2 -0.6,-0.6 l 0,-9.5 c 0,-0.3 0.2,-0.5 0.5,-0.5 0.3,0 0.5,0.2 0.5,0.5 l 0,0.8 c 0.6,-0.9 1.5,-1.4 3,-1.4 l 0.6,0.2 z"
         class="st28"
         id="XMLID_16_"
         inkscape:connector-curvature="0"
         style="fill:#ffffff" /><path
         d="m 407.1,143.8 c 0.1,-0.3 0.3,-0.5 0.6,-0.4 0.4,0 0.6,0.3 0.6,0.6 0,0.1 0,0.2 0,0.2 l -2.5,8.4 c -0.2,0.6 -0.8,1.1 -1.5,1.1 -0.7,0 -1.3,-0.5 -1.5,-1.1 l -2.5,-8.6 c 0,0 0,-0.1 0,-0.1 0,-0.3 0.2,-0.5 0.6,-0.5 0.3,0 0.6,0.2 0.6,0.4 l 2.4,8.4 c 0.1,0.2 0.2,0.4 0.5,0.4 0.3,0 0.4,-0.1 0.5,-0.4 l 2.2,-8.4 z"
         class="st28"
         id="XMLID_14_"
         inkscape:connector-curvature="0"
         style="fill:#ffffff" /><path
         d="m 410.2,140.1 c 0,-0.3 0.2,-0.6 0.6,-0.6 0.3,0 0.6,0.3 0.6,0.6 l 0,0.4 c 0,0.3 -0.2,0.6 -0.6,0.6 -0.4,0 -0.6,-0.2 -0.6,-0.6 l 0,-0.4 z m 0,3.8 c 0,-0.3 0.2,-0.6 0.6,-0.6 0.3,0 0.6,0.3 0.6,0.6 l 0,9.2 c 0,0.3 -0.3,0.6 -0.6,0.6 -0.4,0 -0.6,-0.2 -0.6,-0.6 l 0,-9.2 z"
         class="st28"
         id="XMLID_11_"
         inkscape:connector-curvature="0"
         style="fill:#ffffff" /><path
         d="m 420.1,143.3 c 0.4,0 0.6,0.3 0.6,0.5 0,0.3 -0.2,0.6 -0.6,0.6 l -2.3,0 c -2,0 -2.8,1 -2.8,3 l 0,1.9 c 0,2.2 0.9,3.2 2.8,3.2 l 2.3,0 c 0.4,0 0.6,0.2 0.6,0.6 0,0.3 -0.2,0.5 -0.6,0.5 l -2.3,0 c -2.7,0 -4,-1.4 -4,-4.3 l 0,-1.9 c 0,-2.7 1.3,-4.2 4,-4.2 l 2.3,0 z"
         class="st28"
         id="XMLID_9_"
         inkscape:connector-curvature="0"
         style="fill:#ffffff" /><path
         d="m 422.5,147.3 c 0,-2.5 1.7,-3.9 3.9,-3.9 2.5,0 4,1.4 4,3.9 l 0,1 c 0,0.5 -0.4,0.8 -0.9,0.8 l -5.7,0 c 0,2.5 0.6,3.5 2.6,3.5 l 3.1,0 c 0.4,0 0.6,0.2 0.6,0.6 0,0.3 -0.2,0.5 -0.6,0.5 l -3.1,0 c -3,0 -3.8,-1.6 -3.8,-4.8 l 0,-1.6 z m 6.6,-0.1 c 0,-1.8 -0.9,-2.7 -2.7,-2.7 -1.6,0 -2.6,1.1 -2.6,2.7 l 0,0.9 5.4,0 0,-0.9 z"
         class="st28"
         id="XMLID_6_"
         inkscape:connector-curvature="0"
         style="fill:#ffffff" /><path
         d="m 438.6,143.4 c 0.4,0 0.6,0.2 0.6,0.5 0,0.3 -0.3,0.6 -0.6,0.6 l -3.1,0 c -1.3,0 -2.3,0.5 -2.3,1.7 0,1.1 0.7,1.5 2.5,1.7 l 0.7,0.1 c 2,0.3 3.2,1.1 3.2,2.8 0,2.3 -1.6,3 -3.9,3 l -2.8,0 c -0.3,0 -0.6,-0.2 -0.6,-0.5 0,-0.3 0.2,-0.6 0.6,-0.6 l 2.8,0 c 1.6,0 2.7,-0.5 2.7,-1.8 0,-0.9 -0.8,-1.5 -2.2,-1.7 l -0.9,-0.1 c -2,-0.2 -3.3,-0.9 -3.3,-2.8 0,-2 1.6,-2.8 3.5,-2.8 l 3.1,0 z"
         class="st28"
         id="XMLID_4_"
         inkscape:connector-curvature="0"
         style="fill:#ffffff" /></g></g></svg>